<mxfile host="app.diagrams.net" modified="2023-12-14T09:37:41.263Z" agent="Mozilla/5.0 (Windows NT 10.0; Win64; x64) AppleWebKit/537.36 (KHTML, like Gecko) Chrome/120.0.0.0 Safari/537.36" version="22.1.8" etag="JBsqhYtOvN9tQgCk9sEv" type="github">
  <diagram name="第 1 页" id="G3J0URsrtHpqQhuQ8AYI">
    <mxGraphModel>
      <root>
        <mxCell id="0" />
        <mxCell id="1" parent="0" />
      </root>
    </mxGraphModel>
  </diagram>
</mxfile>
